<?xml version="1.0" encoding="utf-8"?>
<!-- Generator: Adobe Illustrator 17.1.0, SVG Export Plug-In . SVG Version: 6.00 Build 0)  -->
<!DOCTYPE svg PUBLIC "-//W3C//DTD SVG 1.1//EN" "http://www.w3.org/Graphics/SVG/1.1/DTD/svg11.dtd">
<svg version="1.1" id="Layer_1" xmlns="http://www.w3.org/2000/svg" xmlns:xlink="http://www.w3.org/1999/xlink" x="0px" y="0px"
	 viewBox="0 0 241 118" enable-background="new 0 0 241 118" xml:space="preserve">
<path fill="#FFFFFF" d="M0,0L0,0v104.1L49.5,117c14.5,3.8,27.6-6.7,27.6-6.7L241,0l0,0H0z"/>
<g>
	<path fill="#1881C4" d="M46,61.2c0-3.6-2.9-6.5-6.5-6.5c-3.6,0-6.5,2.9-6.5,6.5c0,3.6,2.9,6.5,6.5,6.5c0.2,0,0.4,0,0.6,0
		c0-0.2,0-0.3,0-0.5c0-0.2,0-0.4,0-0.6c-0.2,0-0.4,0-0.6,0c-3,0-5.5-2.4-5.5-5.5c0-3,2.4-5.5,5.5-5.5c3,0,5.5,2.4,5.5,5.5
		c0,2.4-1.6,4.5-3.8,5.2c0,0.3-0.1,0.5-0.1,0.8c0,0.1,0,0.2,0,0.3C43.9,66.8,46,64.3,46,61.2"/>
	<path fill="#EA444F" d="M74.3,61.2c0,3.6-2.9,6.5-6.5,6.5c-3.4,0-6.2-2.6-6.5-6c0.4,0,0.8,0.1,1.1,0.2c0.4,2.6,2.7,4.6,5.4,4.6
		c3,0,5.5-2.4,5.5-5.5c0-3-2.4-5.5-5.5-5.5c-2.9,0-5.3,2.3-5.4,5.1c-0.3-0.1-0.7-0.2-1.1-0.2c0.3-3.4,3.1-6,6.5-6
		C71.4,54.7,74.3,57.6,74.3,61.2"/>
	<path fill="#10A74A" d="M60.7,61.8c2.7,0,5,2,5.4,4.6c0.4,0.1,0.7,0.2,1.1,0.2c-0.3-3.3-3.1-6-6.5-6c-0.2,0-0.4,0-0.6,0
		c0,0.2,0,0.3,0,0.5c0,0.2,0,0.4,0,0.6C60.3,61.8,60.5,61.8,60.7,61.8 M66.1,67.6c-0.2,2.9-2.5,5.1-5.4,5.1c-3,0-5.5-2.4-5.5-5.5
		c0-2.4,1.6-4.5,3.8-5.2c0-0.3,0.1-0.5,0.1-0.8c0-0.1,0-0.2,0-0.3c-2.8,0.7-4.9,3.3-4.9,6.3c0,3.6,2.9,6.5,6.5,6.5
		c3.4,0,6.3-2.7,6.5-6C66.8,67.7,66.5,67.7,66.1,67.6"/>
	<path fill="#FCB01C" d="M45.9,61.8c0-0.2,0-0.4,0-0.6c0-0.2,0-0.3,0-0.5c0.2,0,0.4,0,0.6,0c3.4,0,6.2,2.6,6.5,6
		c-0.4,0-0.8-0.1-1.1-0.2c-0.4-2.6-2.7-4.6-5.4-4.6C46.3,61.8,46.1,61.8,45.9,61.8 M53,67.8c-0.3,3.4-3.1,6-6.5,6
		c-3.6,0-6.5-2.9-6.5-6.5c0-3,2.1-5.6,4.9-6.3c0,0.1,0,0.2,0,0.3c0,0.3,0,0.5-0.1,0.8c-2.2,0.7-3.8,2.8-3.8,5.2c0,3,2.4,5.5,5.5,5.5
		c2.9,0,5.3-2.3,5.4-5.1C52.3,67.7,52.7,67.7,53,67.8"/>
	<path fill="#010101" d="M53.6,54.7c-3.4,0-6.3,2.7-6.5,6c0.4,0,0.7,0.1,1.1,0.2c0.2-2.9,2.5-5.1,5.4-5.1c3,0,5.5,2.4,5.5,5.5
		c0,2.4-1.6,4.5-3.8,5.2c0,0.3-0.1,0.5-0.1,0.8c0,0.1,0,0.2,0,0.3c2.8-0.7,4.9-3.3,4.9-6.3C60.1,57.6,57.2,54.7,53.6,54.7
		 M53.6,66.7c-2.7,0-5-2-5.4-4.6c-0.4-0.1-0.7-0.2-1.1-0.2c0.3,3.3,3.1,6,6.5,6c0.2,0,0.4,0,0.6,0c0-0.2,0-0.3,0-0.5
		c0-0.2,0-0.4,0-0.6C54,66.7,53.8,66.7,53.6,66.7"/>
	<path fill="#FED826" d="M67.6,16.5c-1.3,0.9-4.5,16.2-15.3,16c-4.7-0.1-8.3-2.2-12.8-2.6c-4-0.4-5.2,0-5.3,0.4c0,0,0,0,0,0
		c5.3,0,11.8,1.6,14.6,6.3c2.6,4.5,2.7,9.3,2,12.3c-0.1,0.4-0.4,1.1-0.6,1.5c1.4,0.8,4.9,1.2,6.8,0.7c0.3-8.2,5.6-20,7.4-24.6
		C67.9,18.2,67.6,16.6,67.6,16.5"/>
	<path fill="#FED826" d="M53.6,30.9c1.6,0,2.9-1.3,2.9-2.9c0-1.6-1.3-2.9-2.9-2.9c-1.6,0-2.9,1.3-2.9,2.9
		C50.7,29.6,52,30.9,53.6,30.9"/>
	<path fill="#010101" d="M48.9,36.7c-2.7-4.7-9.3-6.3-14.6-6.3c0,0,0,0,0,0c0,0,0,0.1,0,0.1c0,0.1,2.8,1.2,6.2,5.2
		c5.5,6.7,6.8,13.2,9.9,14.8c0.1-0.4,0.5-1,0.6-1.5C51.6,46,51.5,41.2,48.9,36.7"/>
	<path fill="#EF4651" d="M67.9,16.6c-0.1-0.1-0.2-0.1-0.3-0.1c0,0,0.3,1.7-3.1,10.1c-1.8,4.5-7.1,16.4-7.4,24.6
		C62.6,50,67.9,42.9,68.9,32C69.8,22.9,68,16.8,67.9,16.6"/>
	<path fill="#010101" d="M42,78.4h-1.4c-0.4,0-0.7-0.3-0.7-0.7c0-0.4,0.3-0.7,0.7-0.7h4.2c0.4,0,0.7,0.3,0.7,0.7
		c0,0.4-0.3,0.7-0.7,0.7h-1.4v4.6c0,0.4-0.3,0.7-0.7,0.7c-0.4,0-0.7-0.3-0.7-0.7V78.4z"/>
	<path fill="#010101" d="M46.5,82.9v-5.1c0-0.4,0.3-0.7,0.7-0.7h3.6c0.4,0,0.6,0.3,0.6,0.6c0,0.4-0.3,0.6-0.6,0.6h-2.9v1.3h2.5
		c0.4,0,0.6,0.3,0.6,0.6c0,0.4-0.3,0.6-0.6,0.6h-2.5v1.4h3c0.4,0,0.6,0.3,0.6,0.6c0,0.4-0.3,0.6-0.6,0.6h-3.7
		C46.8,83.6,46.5,83.3,46.5,82.9"/>
	<path fill="#010101" d="M52.4,82.7l2.3-5.2c0.2-0.4,0.4-0.6,0.8-0.6h0.1c0.4,0,0.7,0.2,0.8,0.6l2.3,5.2c0,0.1,0.1,0.2,0.1,0.3
		c0,0.4-0.3,0.7-0.7,0.7c-0.3,0-0.6-0.2-0.7-0.5l-0.4-1h-2.9l-0.5,1.1c-0.1,0.3-0.4,0.4-0.7,0.4c-0.4,0-0.7-0.3-0.7-0.7
		C52.3,82.9,52.3,82.8,52.4,82.7 M56.4,80.9l-0.9-2.2l-0.9,2.2H56.4z"/>
	<path fill="#010101" d="M59.8,77.7c0-0.4,0.3-0.7,0.7-0.7h0.2c0.3,0,0.5,0.2,0.7,0.4l1.7,2.8l1.8-2.8c0.1-0.2,0.4-0.4,0.6-0.4h0.2
		c0.4,0,0.7,0.3,0.7,0.7v5.2c0,0.4-0.3,0.7-0.7,0.7c-0.4,0-0.7-0.3-0.7-0.7v-3.3l-1.3,1.9c-0.1,0.2-0.3,0.4-0.6,0.4
		c-0.3,0-0.4-0.1-0.6-0.4l-1.2-1.9V83c0,0.4-0.3,0.7-0.7,0.7c-0.4,0-0.7-0.3-0.7-0.7V77.7z"/>
	<path fill="#010101" d="M32.5,86c0-0.4,0.3-0.7,0.7-0.7h2.3c0.7,0,1.3,0.2,1.7,0.6c0.3,0.3,0.4,0.7,0.4,1.1v0
		c0,0.7-0.4,1.2-0.9,1.4c0.8,0.3,1.2,0.7,1.2,1.6v0c0,1.2-1,1.8-2.5,1.8h-2.4c-0.4,0-0.7-0.3-0.7-0.7V86z M35.3,87.9
		c0.6,0,1-0.2,1-0.7v0c0-0.4-0.3-0.7-0.9-0.7h-1.4v1.4H35.3z M35.6,90.6c0.6,0,1-0.2,1-0.7v0c0-0.4-0.3-0.7-1.1-0.7h-1.7v1.4H35.6z"
		/>
	<path fill="#010101" d="M39.2,91.1V86c0-0.4,0.3-0.7,0.7-0.7h3.6c0.4,0,0.6,0.3,0.6,0.6c0,0.4-0.3,0.6-0.6,0.6h-2.9v1.3h2.5
		c0.4,0,0.6,0.3,0.6,0.6c0,0.4-0.3,0.6-0.6,0.6h-2.5v1.4h3c0.4,0,0.6,0.3,0.6,0.6c0,0.4-0.3,0.6-0.6,0.6h-3.7
		C39.5,91.8,39.2,91.5,39.2,91.1"/>
	<path fill="#010101" d="M45.5,85.9c0-0.4,0.3-0.7,0.7-0.7c0.4,0,0.7,0.3,0.7,0.7v4.6h2.7c0.4,0,0.7,0.3,0.7,0.7
		c0,0.4-0.3,0.7-0.7,0.7h-3.4c-0.4,0-0.7-0.3-0.7-0.7V85.9z"/>
	<path fill="#010101" d="M50.3,88.6L50.3,88.6c0-1.9,1.5-3.4,3.4-3.4c1,0,1.6,0.2,2.2,0.6c0.1,0.1,0.3,0.3,0.3,0.6
		c0,0.4-0.3,0.7-0.7,0.7c-0.2,0-0.3-0.1-0.4-0.2c-0.4-0.3-0.8-0.4-1.4-0.4c-1,0-1.9,0.9-1.9,2v0c0,1.2,0.8,2.1,2,2.1
		c0.5,0,1-0.1,1.4-0.4v-0.9h-1c-0.3,0-0.6-0.3-0.6-0.6c0-0.3,0.3-0.6,0.6-0.6h1.6c0.4,0,0.7,0.3,0.7,0.7v1.6c0,0.4-0.2,0.7-0.5,0.9
		c-0.5,0.3-1.3,0.7-2.3,0.7C51.7,91.9,50.3,90.5,50.3,88.6"/>
	<path fill="#010101" d="M58.1,85.9c0-0.4,0.3-0.7,0.7-0.7c0.4,0,0.7,0.3,0.7,0.7v5.2c0,0.4-0.3,0.7-0.7,0.7c-0.4,0-0.7-0.3-0.7-0.7
		V85.9z"/>
	<path fill="#010101" d="M61,89v-3.1c0-0.4,0.3-0.7,0.7-0.7c0.4,0,0.7,0.3,0.7,0.7v3c0,1.1,0.5,1.6,1.4,1.6c0.9,0,1.4-0.5,1.4-1.6
		v-3.1c0-0.4,0.3-0.7,0.7-0.7s0.7,0.3,0.7,0.7v3c0,2-1.1,3-2.9,3C62.1,91.9,61,90.9,61,89"/>
	<path fill="#010101" d="M68.1,85.9c0-0.4,0.3-0.7,0.7-0.7H69c0.3,0,0.5,0.2,0.7,0.4l1.7,2.8l1.8-2.8c0.1-0.2,0.4-0.4,0.6-0.4h0.2
		c0.4,0,0.7,0.3,0.7,0.7v5.2c0,0.4-0.3,0.7-0.7,0.7c-0.4,0-0.7-0.3-0.7-0.7v-3.3L72,89.8c-0.1,0.2-0.3,0.4-0.6,0.4
		c-0.3,0-0.4-0.1-0.6-0.4l-1.2-1.9v3.3c0,0.4-0.3,0.7-0.7,0.7s-0.7-0.3-0.7-0.7V85.9z"/>
</g>
</svg>
