<?xml version="1.0" encoding="utf-8"?>
<!-- Generator: Adobe Illustrator 21.0.0, SVG Export Plug-In . SVG Version: 6.00 Build 0)  -->
<svg version="1.1" id="Laag_1" xmlns="http://www.w3.org/2000/svg" xmlns:xlink="http://www.w3.org/1999/xlink" x="0px" y="0px"
	 viewBox="0 0 33.8 53.6" style="enable-background:new 0 0 33.8 53.6;" xml:space="preserve">
<g>
	<path d="M33.7,25.9c0,3.3,0,6.6,0,9.9c0,7.8-6.2,14.7-13.9,15.8c-8.5,1.2-16.3-4.3-18.2-12c-0.3-1.4-0.5-2.8-0.6-4.2
		C1,29.2,1,23,1,16.8c0-6.4,2.7-11.3,8.2-14.6c6.3-3.8,14.9-2.5,19.9,2.9c3,3.3,4.5,7.1,4.5,11.6C33.6,19.7,33.7,22.8,33.7,25.9z
		 M27,25.6c0-3.5,0-6.8,0-10.1c0-0.5-0.1-0.9-0.2-1.4c-1.1-4.6-5.1-7.7-10-7.5c-4.3,0.1-8.3,3.6-9,8.1c-0.1,0.4-0.1,1,0.1,1.4
		c1.5,3.2,3.8,5.6,7.4,6.3c1.4,0.3,2.9,0.2,4.3,0.4C22.3,23.1,24.7,24,27,25.6z M7.7,26.4c0,3.2,0,6.4,0,9.6c0,0.8,0.1,1.7,0.4,2.5
		c1.4,3.8,4.1,6.2,8.2,6.6c4.3,0.4,7.6-1.5,9.7-5.3c1-1.8,1.5-3.7,0.1-5.7c-2.1-3-4.7-4.8-8.4-4.9c-1.8-0.1-3.6-0.3-5.3-0.8
		C10.7,28,9.3,27.1,7.7,26.4z"/>
</g>
</svg>
